PathFileType	4	(X/Y/Z)	Walk7.trc
DataRate	CameraRate	NumFrames	NumMarkers	Units	OrigDataRate	OrigDataStartFrame	OrigNumFrames
200.000000	200.000000	8	61	mm	200.000000	652	852
Frame#	Times		LowerBodyModelVer		LFHD		RFHD		RACR1		RUA1		RCAR		LElbow		RFA1		RASI		LACR1		LLFC		RWRU		LUA1		LTH3		LTB1		LMT1		RTH2		LMT5		LTB3		LTB4		LToe		LTB2		LTH2		LTH4		CLAV		RLFC		STRN		LLMAL		RBHD		LTH1		RTH3		LFA1		RBack		C7		LWRU		LPSI		RMT5		RMT1		LBHD		LCAR		RTH4		RCAL		RTH1		RTB2		RToe		RLMAL		LASI		RPSI		SACR		RTB3		LWRR		RTB1		RTB4		RMMAL		LMMAL		RElbowM		RElbow		T10		RWRR		LCAL		LElbowM
			X1	Y1	Z1	X2	Y2	Z2	X3	Y3	Z3	X4	Y4	Z4	X5	Y5	Z5	X6	Y6	Z6	X7	Y7	Z7	X8	Y8	Z8	X9	Y9	Z9	X10	Y10	Z10	X11	Y11	Z11	X12	Y12	Z12	X13	Y13	Z13	X14	Y14	Z14	X15	Y15	Z15	X16	Y16	Z16	X17	Y17	Z17	X18	Y18	Z18	X19	Y19	Z19	X20	Y20	Z20	X21	Y21	Z21	X22	Y22	Z22	X23	Y23	Z23	X24	Y24	Z24	X25	Y25	Z25	X26	Y26	Z26	X27	Y27	Z27	X28	Y28	Z28	X29	Y29	Z29	X30	Y30	Z30	X31	Y31	Z31	X32	Y32	Z32	X33	Y33	Z33	X34	Y34	Z34	X35	Y35	Z35	X36	Y36	Z36	X37	Y37	Z37	X38	Y38	Z38	X39	Y39	Z39	X40	Y40	Z40	X41	Y41	Z41	X42	Y42	Z42	X43	Y43	Z43	X44	Y44	Z44	X45	Y45	Z45	X46	Y46	Z46	X47	Y47	Z47	X48	Y48	Z48	X49	Y49	Z49	X50	Y50	Z50	X51	Y51	Z51	X52	Y52	Z52	X53	Y53	Z53	X54	Y54	Z54	X55	Y55	Z55	X56	Y56	Z56	X57	Y57	Z57	X58	Y58	Z58	X59	Y59	Z59	X60	Y60	Z60	X61	Y61	Z61

652	3.26	9	2014	4	138.29	1541.8	-41.024	139.12	1537.9	56.794	-6.0062	1343.2	176.14	-48.75	1199.1	260.51	-41.656	738.43	313.8	4.1536	1047.5	-312.82	-42.859	901.96	304.21	96.311	934.04	168.67	12.88	1333.4	-183.12	-112.25	487.55	-165.17	-73.712	798.12	331.91	28.7	1190	-262.3	-60.111	548.79	-179.05	-137.68	326.8	-68.216	-171.63	36.036	-62.99	144.31	638.85	175.39	-195.35	24.538	-149.77	-214.26	174.01	-81.448	-180.14	252.51	-75.158	-128.47	28.772	-65.247	-181	259.22	-137.24	23.476	612.3	-178.21	-27.482	624.42	-208.29	74.591	1310.1	-1.5943	135.06	453.5	166.95	139.75	1195.1	2.4679	-292.48	100.03	-139.93	-31.299	1546.6	66.525	8.6865	696.86	-235.94	109.48	540.29	179.24	105.44	959.14	-325.41	-144.53	1283	97.384	-86.597	1387.2	3.7073	139.67	847.56	-358.75	-154.55	951.62	-89.987	324.66	35.107	165.93	335.6	46.122	78.576	-14.111	1538.6	-68.021	194.37	823.87	-352.17	89.797	622.57	195.5	150.12	24.275	118.18	78.481	704.4	216.49	198.57	278.39	156.33	375.45	52.345	84.42	199.15	64.938	161.88	106.49	955.05	-160.88	-158.62	943.22	41.832	-156.59	947.42	-24.077	223.7	188.39	102.4	175.16	862.73	-294.54	211.93	358.71	88.201	213.32	272.49	95.666	217.18	74.199	76.937	-277.83	101.17	-55.665	-128.3	1025.2	207.51	-94.108	1036	292.52	-138.5	1056.2	-12.458	-33.492	795.7	268.31	-355.18	76.627	-96.563	-23.963	1000.3	-220.35
653	3.265	9	2014	4	142.76	1542.3	-39.192	143.7	1538.4	58.629	-1.1065	1343	178.07	-43.499	1198.6	262.05	-35.876	737.93	314.45	7.5276	1048.3	-311.35	-37.33	901.42	305.1	101.41	934.35	169.65	17.477	1334.2	-181.32	-106.89	487.8	-165.24	-68.059	797.5	332.59	32.044	1190.8	-260.95	-54.719	549.01	-178.94	-133.68	326.99	-68.484	-171.39	36.044	-63.131	149.64	639.68	175.97	-195.29	24.549	-149.72	-211.96	175.07	-81.843	-176.93	253.16	-75.492	-128.5	28.775	-65.293	-177.72	259.94	-137.58	28.741	612.69	-177.9	-22.189	624.72	-208.05	79.3	1310.5	0.28175	139.97	454.35	167.56	144.59	1195.6	4.2636	-291.02	101.97	-140.37	-26.703	1547.1	68.545	13.885	697.24	-235.59	114.41	541.26	179.81	109.11	960.14	-323.88	-139.7	1283	99.336	-81.876	1387.5	5.8625	143.48	848.58	-357.2	-149.47	951.89	-89.413	325.32	33.507	166.41	336.2	44.457	78.639	-9.6606	1538.9	-66.015	198.25	825.02	-350.64	94.937	623.69	195.8	150.35	24.799	118.36	84.334	705.46	216.71	201.96	278.31	156.64	376.24	49.897	84.387	199.94	64.917	162.19	111.63	955.03	-159.79	-153.55	943.62	42.366	-151.51	947.76	-23.523	225.81	188.05	102.6	178.96	863.83	-293	215.97	358.52	88.579	216.35	272.28	95.948	217.99	74.015	77.135	-276.24	103.03	-56.134	-122.94	1024.8	208.67	-88.687	1035.5	293.68	-133.55	1056.5	-11.696	-27.818	795.23	269	-353.92	79.639	-96.842	-20.076	1001.1	-218.73
654	3.27	9	2014	4	147.26	1542.8	-37.344	148.31	1539	60.48	3.8007	1343	180	-38.229	1198.2	263.6	-30.052	737.55	315.09	10.831	1049.2	-309.85	-31.775	900.99	305.99	106.52	934.81	170.65	22.108	1335.1	-179.51	-101.37	488.08	-165.35	-62.364	796.99	333.28	35.368	1191.7	-259.58	-49.193	549.27	-178.87	-129.53	327.2	-68.811	-171.13	36.05	-63.27	154.85	640.54	176.6	-195.22	24.567	-149.66	-209.52	176.19	-82.276	-173.56	253.84	-75.888	-128.56	28.778	-65.341	-174.29	260.71	-137.98	34.11	613.17	-177.58	-16.79	625.1	-207.82	84.023	1311.1	2.1607	144.75	455.17	168.16	149.43	1196.2	6.1092	-289.45	104.01	-140.83	-22.076	1547.6	70.581	19.159	697.7	-235.22	119.24	542.25	180.44	112.68	961.19	-322.35	-134.84	1283.1	101.26	-77.133	1388	8.0091	147.13	849.63	-355.65	-144.33	952.26	-88.897	325.9	32.141	166.91	336.71	42.966	78.697	-5.1806	1539.4	-63.993	201.95	826.16	-349.11	99.971	624.83	196.17	150.56	25.272	118.53	90.081	706.57	216.95	205.2	278.21	156.95	376.94	47.669	84.359	200.64	64.927	162.48	116.89	955.13	-158.7	-148.48	944.13	42.841	-146.41	948.2	-23.028	227.8	187.75	102.78	182.62	864.96	-291.46	219.9	358.34	89.007	219.26	272.09	96.248	218.7	73.872	77.31	-274.51	104.98	-56.622	-117.56	1024.4	209.83	-83.26	1035	294.83	-128.56	1057	-10.935	-22.102	794.87	269.7	-352.51	82.807	-97.112	-16.221	1002.1	-217.05
655	3.275	9	2014	4	151.78	1543.4	-35.483	152.95	1539.7	62.343	8.7092	1343	181.91	-32.946	1197.9	265.16	-24.185	737.27	315.73	14.07	1050.2	-308.32	-26.194	900.67	306.87	111.64	935.4	171.65	26.768	1336.1	-177.68	-95.687	488.38	-165.52	-56.629	796.58	333.97	38.682	1192.7	-258.19	-43.53	549.58	-178.84	-125.21	327.45	-69.199	-170.85	36.054	-63.404	159.94	641.42	177.28	-195.14	24.593	-149.6	-206.92	177.37	-82.751	-170.01	254.56	-76.347	-128.64	28.779	-65.389	-170.72	261.52	-138.44	39.584	613.74	-177.26	-11.285	625.55	-207.61	88.756	1311.8	4.037	149.38	455.96	168.75	154.28	1196.9	8.0023	-287.75	106.13	-141.3	-17.421	1548.2	72.629	24.507	698.24	-234.85	123.96	543.24	181.11	116.15	962.3	-320.81	-129.97	1283.3	103.15	-72.375	1388.5	10.142	150.62	850.72	-354.1	-139.16	952.72	-88.436	326.42	30.998	167.38	337.15	41.639	78.735	-0.67267	1540	-61.958	205.47	827.29	-347.57	104.9	625.96	196.6	150.76	25.692	118.68	95.709	707.68	217.21	208.28	278.1	157.25	377.55	45.65	84.32	201.27	64.96	162.74	122.28	955.36	-157.59	-143.41	944.74	43.259	-141.28	948.73	-22.588	229.67	187.46	102.94	186.13	866.11	-289.92	223.72	358.17	89.484	222.05	271.91	96.56	219.33	73.759	77.451	-272.62	107.01	-57.129	-112.17	1024.2	210.97	-77.828	1034.6	295.97	-123.54	1057.5	-10.172	-16.344	794.63	270.39	-350.93	86.135	-97.372	-12.392	1003.2	-215.32
656	3.28	9	2014	4	156.34	1544.1	-33.613	157.61	1540.4	64.213	13.613	1343.1	183.8	-27.653	1197.7	266.71	-18.275	737.1	316.37	17.25	1051.3	-306.76	-20.589	900.46	307.76	116.77	936.13	172.66	31.448	1337.2	-175.84	-89.833	488.7	-165.75	-50.851	796.29	334.66	41.996	1193.8	-256.78	-37.727	549.94	-178.86	-120.72	327.73	-69.655	-170.57	36.055	-63.527	164.9	642.27	178.01	-195.05	24.63	-149.52	-204.16	178.6	-83.27	-166.26	255.31	-76.871	-128.74	28.777	-65.435	-166.98	262.37	-138.97	45.163	614.39	-176.96	-5.6739	626.07	-207.41	93.498	1312.5	5.9054	153.84	456.68	169.31	159.14	1197.7	9.9396	-285.91	108.35	-141.78	-12.737	1549	74.686	29.927	698.88	-234.46	128.56	544.2	181.8	119.53	963.47	-319.27	-125.08	1283.6	104.99	-67.612	1389.1	12.259	153.97	851.83	-352.56	-133.93	953.28	-88.027	326.88	30.062	167.83	337.52	40.466	78.745	3.8614	1540.6	-59.914	208.83	828.4	-346.03	109.71	627.06	197.1	150.94	26.061	118.81	101.21	708.77	217.52	211.18	277.97	157.56	378.08	43.832	84.266	201.83	65.009	162.96	127.8	955.73	-156.47	-138.34	945.44	43.626	-136.14	949.36	-22.2	231.42	187.2	103.08	189.5	867.28	-288.4	227.41	357.99	90.003	224.7	271.74	96.88	219.87	73.667	77.554	-270.57	109.13	-57.654	-106.78	1024	212.1	-72.396	1034.4	297.11	-118.49	1058.1	-9.4048	-10.546	794.5	271.08	-349.17	89.623	-97.621	-8.586	1004.5	-213.55
657	3.285	9	2014	4	160.91	1544.8	-31.738	162.3	1541.2	66.085	18.508	1343.3	185.68	-22.352	1197.6	268.26	-12.323	737.05	317	20.378	1052.5	-305.18	-14.959	900.37	308.64	121.92	936.98	173.67	36.143	1338.4	-173.99	-83.802	489.05	-166.04	-45.033	796.12	335.36	45.32	1195	-255.35	-31.781	550.34	-178.92	-116.04	328.02	-70.183	-170.28	36.055	-63.637	169.73	643.09	178.77	-194.93	24.682	-149.44	-201.21	179.89	-83.833	-162.32	256.1	-77.46	-128.86	28.772	-65.474	-163.08	263.26	-139.55	50.848	615.13	-176.66	0.044051	626.67	-207.24	98.245	1313.4	7.7608	158.13	457.35	169.84	164	1198.5	11.917	-283.92	110.67	-142.27	-8.0263	1549.8	76.748	35.417	699.62	-234.07	133.04	545.12	182.5	122.83	964.68	-317.73	-120.18	1283.9	106.79	-62.848	1389.8	14.355	157.17	852.98	-351.03	-128.67	953.92	-87.661	327.28	29.311	168.23	337.83	39.436	78.728	8.4195	1541.4	-57.866	212.03	829.49	-344.5	114.41	628.1	197.67	151.09	26.379	118.92	106.57	709.84	217.86	213.89	277.81	157.86	378.54	42.204	84.194	202.31	65.069	163.14	133.45	956.23	-155.34	-133.28	946.22	43.946	-130.97	950.07	-21.857	233.06	186.95	103.2	192.74	868.46	-286.89	230.95	357.81	90.558	227.21	271.57	97.205	220.32	73.59	77.617	-268.33	111.33	-58.195	-101.38	1024	213.22	-66.963	1034.2	298.25	-113.41	1058.8	-8.6325	-4.7083	794.48	271.78	-347.21	93.273	-97.86	-4.7959	1005.8	-211.73
658	3.29	9	2014	4	165.52	1545.6	-29.864	167.02	1542	67.956	23.389	1343.7	187.53	-17.048	1197.6	269.81	-6.3297	737.09	317.62	23.457	1053.8	-303.57	-9.3056	900.39	309.52	127.08	937.96	174.69	40.844	1339.7	-172.14	-77.587	489.41	-166.4	-39.175	796.05	336.05	48.662	1196.3	-253.9	-25.69	550.79	-179.05	-111.15	328.33	-70.786	-169.97	36.053	-63.729	174.43	643.85	179.57	-194.8	24.754	-149.34	-198.07	181.22	-84.44	-158.16	256.9	-78.114	-129.01	28.762	-65.506	-158.99	264.17	-140.2	56.641	615.96	-176.38	5.8672	627.35	-207.08	103	1314.4	9.5986	162.22	457.93	170.34	168.86	1199.5	13.929	-281.77	113.07	-142.75	-3.2908	1550.7	78.81	40.973	700.46	-233.67	137.38	545.98	183.19	126.04	965.94	-316.2	-115.27	1284.3	108.54	-58.091	1390.6	16.429	160.22	854.15	-349.53	-123.37	954.65	-87.332	327.63	28.723	168.59	338.09	38.54	78.683	12.999	1542.2	-55.818	215.07	830.56	-342.97	118.99	629.08	198.29	151.23	26.65	119.01	111.79	710.84	218.25	216.41	277.63	158.15	378.95	40.755	84.109	202.73	65.136	163.27	139.21	956.87	-154.21	-128.22	947.09	44.228	-125.79	950.87	-21.552	234.58	186.72	103.3	195.85	869.65	-285.4	234.32	357.62	91.136	229.58	271.4	97.53	220.71	73.523	77.643	-265.9	113.61	-58.751	-95.981	1024.1	214.34	-61.53	1034.1	299.38	-108.3	1059.5	-7.853	1.1668	794.58	272.47	-345.04	97.082	-98.088	-1.0177	1007.3	-209.87
659	3.295	9	2014	4	170.15	1546.5	-27.993	171.75	1542.9	69.823	28.253	1344.1	189.37	-11.743	1197.7	271.35	-0.29607	737.24	318.23	26.495	1055.2	-301.94	-3.6288	900.51	310.41	132.27	939.04	175.72	45.547	1341	-170.29	-71.183	489.78	-166.82	-33.277	796.08	336.75	52.03	1197.7	-252.44	-19.452	551.28	-179.24	-106.03	328.64	-71.468	-169.66	36.05	-63.799	179	644.51	180.38	-194.62	24.853	-149.23	-194.71	182.59	-85.092	-153.79	257.73	-78.83	-129.19	28.746	-65.525	-154.71	265.11	-140.91	62.54	616.88	-176.13	11.794	628.1	-206.95	107.75	1315.4	11.416	166.12	458.44	170.81	173.71	1200.5	15.97	-279.44	115.56	-143.24	1.4675	1551.7	80.871	46.591	701.39	-233.27	141.57	546.76	183.86	129.18	967.24	-314.67	-110.36	1284.7	110.24	-53.343	1391.4	18.481	163.15	855.35	-348.05	-118.04	955.47	-87.03	327.93	28.275	168.9	338.3	37.768	78.617	17.599	1543.2	-53.774	217.95	831.59	-341.47	123.46	629.97	198.96	151.34	26.875	119.07	116.87	711.77	218.69	218.74	277.44	158.44	379.3	39.474	84.014	203.08	65.205	163.36	145.1	957.64	-153.06	-123.17	948.03	44.479	-120.61	951.75	-21.275	235.98	186.5	103.38	198.85	870.84	-283.95	237.52	357.43	91.728	231.81	271.23	97.852	221.02	73.464	77.633	-263.27	115.96	-59.317	-90.584	1024.2	215.46	-56.097	1034.2	300.51	-103.17	1060.3	-7.0639	7.0779	794.79	273.16	-342.63	101.05	-98.304	2.7529	1008.8	-207.97
